<svg width="156" height="172" viewBox="0 0 156 172" fill="none" xmlns="http://www.w3.org/2000/svg">
<circle cx="151.5" cy="145.5" r="4.5" transform="rotate(-180 151.5 145.5)" fill="#008080" fill-opacity="0.25"/>
<circle cx="151.5" cy="167.5" r="4.5" transform="rotate(-180 151.5 167.5)" fill="#008080" fill-opacity="0.25"/>
<circle cx="151.5" cy="100.5" r="4.5" transform="rotate(-180 151.5 100.5)" fill="#008080" fill-opacity="0.25"/>
<circle cx="151.5" cy="123.5" r="4.5" transform="rotate(-180 151.5 123.5)" fill="#008080" fill-opacity="0.25"/>
<circle cx="151.5" cy="75.5" r="4.5" transform="rotate(-180 151.5 75.5)" fill="#008080" fill-opacity="0.25"/>
<circle cx="151.5" cy="27.5" r="4.5" transform="rotate(-180 151.5 27.5)" fill="#008080" fill-opacity="0.25"/>
<circle cx="151.5" cy="4.5" r="4.5" transform="rotate(-180 151.5 4.5)" fill="#008080" fill-opacity="0.25"/>
<circle cx="151.5" cy="51.5" r="4.5" transform="rotate(-180 151.5 51.5)" fill="#008080" fill-opacity="0.25"/>
<circle cx="128.5" cy="145.5" r="4.5" transform="rotate(-180 128.5 145.5)" fill="#008080" fill-opacity="0.25"/>
<circle cx="128.5" cy="167.5" r="4.5" transform="rotate(-180 128.5 167.5)" fill="#008080" fill-opacity="0.25"/>
<circle cx="128.5" cy="100.5" r="4.5" transform="rotate(-180 128.5 100.5)" fill="#008080" fill-opacity="0.25"/>
<circle cx="128.5" cy="123.5" r="4.5" transform="rotate(-180 128.5 123.5)" fill="#008080" fill-opacity="0.25"/>
<circle cx="128.5" cy="75.5" r="4.5" transform="rotate(-180 128.5 75.5)" fill="#008080" fill-opacity="0.25"/>
<circle cx="128.5" cy="27.5" r="4.5" transform="rotate(-180 128.5 27.5)" fill="#008080" fill-opacity="0.25"/>
<circle cx="128.5" cy="4.5" r="4.5" transform="rotate(-180 128.5 4.5)" fill="#008080" fill-opacity="0.25"/>
<circle cx="128.5" cy="51.5" r="4.5" transform="rotate(-180 128.5 51.5)" fill="#008080" fill-opacity="0.25"/>
<circle cx="104.5" cy="145.5" r="4.5" transform="rotate(-180 104.5 145.5)" fill="#008080" fill-opacity="0.25"/>
<circle cx="104.5" cy="167.5" r="4.5" transform="rotate(-180 104.5 167.5)" fill="#008080" fill-opacity="0.25"/>
<circle cx="104.5" cy="100.5" r="4.5" transform="rotate(-180 104.5 100.5)" fill="#008080" fill-opacity="0.25"/>
<circle cx="104.5" cy="123.5" r="4.5" transform="rotate(-180 104.5 123.5)" fill="#008080" fill-opacity="0.25"/>
<circle cx="104.5" cy="75.5" r="4.5" transform="rotate(-180 104.5 75.5)" fill="#008080" fill-opacity="0.25"/>
<circle cx="104.5" cy="27.5" r="4.5" transform="rotate(-180 104.5 27.5)" fill="#008080" fill-opacity="0.25"/>
<circle cx="104.5" cy="4.5" r="4.5" transform="rotate(-180 104.5 4.5)" fill="#008080" fill-opacity="0.25"/>
<circle cx="104.5" cy="51.5" r="4.5" transform="rotate(-180 104.5 51.5)" fill="#008080" fill-opacity="0.25"/>
<circle cx="80.5" cy="145.5" r="4.5" transform="rotate(-180 80.5 145.5)" fill="#008080" fill-opacity="0.25"/>
<circle cx="80.5" cy="167.5" r="4.5" transform="rotate(-180 80.5 167.5)" fill="#008080" fill-opacity="0.25"/>
<circle cx="80.5" cy="100.5" r="4.5" transform="rotate(-180 80.5 100.5)" fill="#008080" fill-opacity="0.25"/>
<circle cx="80.5" cy="123.5" r="4.5" transform="rotate(-180 80.5 123.5)" fill="#008080" fill-opacity="0.25"/>
<circle cx="80.5" cy="75.5" r="4.5" transform="rotate(-180 80.5 75.5)" fill="#008080" fill-opacity="0.25"/>
<circle cx="80.5" cy="27.5" r="4.5" transform="rotate(-180 80.5 27.5)" fill="#008080" fill-opacity="0.25"/>
<circle cx="80.5" cy="4.5" r="4.5" transform="rotate(-180 80.5 4.5)" fill="#008080" fill-opacity="0.25"/>
<circle cx="80.5" cy="51.5" r="4.5" transform="rotate(-180 80.5 51.5)" fill="#008080" fill-opacity="0.25"/>
<circle cx="51.5" cy="145.5" r="4.5" transform="rotate(-180 51.5 145.5)" fill="#008080" fill-opacity="0.25"/>
<circle cx="51.5" cy="167.5" r="4.5" transform="rotate(-180 51.5 167.5)" fill="#008080" fill-opacity="0.25"/>
<circle cx="51.5" cy="100.5" r="4.5" transform="rotate(-180 51.5 100.5)" fill="#008080" fill-opacity="0.25"/>
<circle cx="51.5" cy="123.5" r="4.5" transform="rotate(-180 51.5 123.5)" fill="#008080" fill-opacity="0.25"/>
<circle cx="51.5" cy="75.5" r="4.5" transform="rotate(-180 51.5 75.5)" fill="#008080" fill-opacity="0.25"/>
<circle cx="51.5" cy="27.5" r="4.5" transform="rotate(-180 51.5 27.5)" fill="#008080" fill-opacity="0.25"/>
<circle cx="51.5" cy="4.5" r="4.5" transform="rotate(-180 51.5 4.5)" fill="#008080" fill-opacity="0.25"/>
<circle cx="51.5" cy="51.5" r="4.5" transform="rotate(-180 51.5 51.5)" fill="#008080" fill-opacity="0.25"/>
<circle cx="26.5" cy="145.5" r="4.5" transform="rotate(-180 26.5 145.5)" fill="#008080" fill-opacity="0.25"/>
<circle cx="26.5" cy="167.5" r="4.5" transform="rotate(-180 26.5 167.5)" fill="#008080" fill-opacity="0.25"/>
<circle cx="26.5" cy="100.5" r="4.5" transform="rotate(-180 26.5 100.5)" fill="#008080" fill-opacity="0.25"/>
<circle cx="26.5" cy="123.5" r="4.5" transform="rotate(-180 26.5 123.5)" fill="#008080" fill-opacity="0.25"/>
<circle cx="26.5" cy="75.5" r="4.5" transform="rotate(-180 26.5 75.5)" fill="#008080" fill-opacity="0.25"/>
<circle cx="26.5" cy="27.5" r="4.5" transform="rotate(-180 26.5 27.5)" fill="#008080" fill-opacity="0.25"/>
<circle cx="26.5" cy="4.5" r="4.5" transform="rotate(-180 26.5 4.5)" fill="#008080" fill-opacity="0.25"/>
<circle cx="26.5" cy="51.5" r="4.5" transform="rotate(-180 26.5 51.5)" fill="#008080" fill-opacity="0.25"/>
<circle cx="4.5" cy="145.5" r="4.5" transform="rotate(-180 4.5 145.5)" fill="#008080" fill-opacity="0.25"/>
<circle cx="4.5" cy="167.5" r="4.5" transform="rotate(-180 4.5 167.5)" fill="#008080" fill-opacity="0.25"/>
<circle cx="4.5" cy="100.5" r="4.5" transform="rotate(-180 4.5 100.5)" fill="#008080" fill-opacity="0.25"/>
<circle cx="4.5" cy="123.5" r="4.5" transform="rotate(-180 4.5 123.5)" fill="#008080" fill-opacity="0.25"/>
<circle cx="4.5" cy="75.5" r="4.5" transform="rotate(-180 4.5 75.5)" fill="#008080" fill-opacity="0.25"/>
<circle cx="4.5" cy="27.5" r="4.5" transform="rotate(-180 4.5 27.5)" fill="#008080" fill-opacity="0.25"/>
<circle cx="4.5" cy="4.5" r="4.5" transform="rotate(-180 4.5 4.5)" fill="#008080" fill-opacity="0.25"/>
<circle cx="4.5" cy="51.5" r="4.5" transform="rotate(-180 4.5 51.5)" fill="#008080" fill-opacity="0.25"/>
</svg>
